<?xml version="1.0" encoding="utf-8"?>
<!-- Generator: Adobe Illustrator 27.1.1, SVG Export Plug-In . SVG Version: 6.00 Build 0)  -->
<svg version="1.1" id="Layer_1" xmlns="http://www.w3.org/2000/svg" xmlns:xlink="http://www.w3.org/1999/xlink" x="0px" y="0px"
	 viewBox="0 0 420 426.7" style="enable-background:new 0 0 420 426.7;" xml:space="preserve">
<style type="text/css">
	.st0{fill:#FF4635;}
</style>
<g>
	<path class="st0" d="M13.7,94.2l134.4,126.2l-20.5,21.8l60.2,60.2l23.8-22.4l23.8,22.4l60.2-60.2L87.3,20.4c-1.7-1.8-4-2.9-6.5-3.1
		L14.6,9.9c-3.1-0.4-6.3,0.7-8.5,3c-2.2,2.3-3.4,5.5-2.9,8.5l7.4,66.3C10.7,90.2,11.9,92.5,13.7,94.2L13.7,94.2z"/>
	<path class="st0" d="M419.7,382.9c-1.4-8.3-6.5-15.3-14.2-19.2l-3.8-1.8c-3.1-1.7-6.1-3.8-8.3-6.1l-47-47l-44.2,44.2l46.8,46.8
		c2.4,2.4,4.5,5.4,6,8.1l2.1,4.2c3.8,7.6,10.7,12.7,19.1,14.1c1.4,0.2,2.8,0.3,4.2,0.3c6.8,0,13.5-2.7,18.5-7.6l13.6-13.5
		C418.3,399.6,421,391.2,419.7,382.9L419.7,382.9z"/>
	<path class="st0" d="M339.2,242.7c-4.1-4.1-10.7-4.1-14.8,0l-88.5,88.4c-4.1,4.1-4.1,10.6,0,14.8c12.2,12.2,32,12.2,44.2,0l59-59
		C351.4,274.7,351.4,254.9,339.2,242.7L339.2,242.7z"/>
	<path class="st0" d="M409.4,94.2c1.8-1.7,2.9-4,3.2-6.5l7.4-66.3c0.4-3.1-0.7-6.3-2.9-8.5c-2.3-2.2-5.5-3.4-8.5-2.9l-66.3,7.4
		c-2.5,0.2-4.8,1.4-6.5,3.1l-110,116.9l64.4,68.6L409.4,94.2L409.4,94.2z"/>
	<path class="st0" d="M29.7,355.9c-2.3,2.3-5.3,4.4-8.3,6.1l-3.8,1.8c-7.7,3.9-12.8,10.8-14.2,19.2c-1.4,8.2,1.4,16.7,7.2,22.6
		l13.6,13.5c4.9,4.9,11.6,7.6,18.5,7.6c1.4,0,2.8-0.1,4.2-0.3c8.3-1.4,15.3-6.5,19.1-14.1l2.1-4.2c1.5-2.8,3.6-5.8,6-8.1l46.8-46.8
		l-44.2-44.2L29.7,355.9L29.7,355.9z"/>
	<path class="st0" d="M98.7,242.7c-4.1-4.1-10.6-4.1-14.8,0c-12.2,12.2-12.2,32,0,44.2l59,59c12.2,12.2,32,12.2,44.2,0
		c4.1-4.1,4.1-10.6,0-14.8L98.7,242.7L98.7,242.7z"/>
</g>
</svg>
